<svg xmlns="http://www.w3.org/2000/svg" xmlns:xlink="http://www.w3.org/1999/xlink" contentStyleType="text/css" height="954px" preserveAspectRatio="none" style="width:758px;height:954px;background:#FFFFFF;" version="1.1" viewBox="0 0 758 954" width="758px" zoomAndPan="magnify"><defs/><g><!--class MyApp--><g id="elem_MyApp"><rect codeLine="1" fill="#F1F1F1" height="64.2969" id="MyApp" rx="2.5" ry="2.5" style="stroke:#181818;stroke-width:0.5;" width="130" x="172" y="7"/><ellipse cx="210.4" cy="23" fill="#ADD1B2" rx="11" ry="11" style="stroke:#181818;stroke-width:1.0;"/><path d="M213.3688,28.6406 Q212.7906,28.9375 212.15,29.0781 Q211.5094,29.2344 210.8063,29.2344 Q208.3063,29.2344 206.9781,27.5938 Q205.6656,25.9375 205.6656,22.8125 Q205.6656,19.6875 206.9781,18.0313 Q208.3063,16.375 210.8063,16.375 Q211.5094,16.375 212.15,16.5313 Q212.8063,16.6875 213.3688,16.9844 L213.3688,19.7031 Q212.7438,19.125 212.15,18.8594 Q211.5563,18.5781 210.9313,18.5781 Q209.5875,18.5781 208.9,19.6563 Q208.2125,20.7188 208.2125,22.8125 Q208.2125,24.9063 208.9,25.9844 Q209.5875,27.0469 210.9313,27.0469 Q211.5563,27.0469 212.15,26.7813 Q212.7438,26.5 213.3688,25.9219 L213.3688,28.6406 Z " fill="#000000"/><text fill="#000000" font-family="sans-serif" font-size="14" lengthAdjust="spacing" textLength="46" x="229.6" y="27.8467">MyApp</text><line style="stroke:#181818;stroke-width:0.5;" x1="173" x2="301" y1="39" y2="39"/><line style="stroke:#181818;stroke-width:0.5;" x1="173" x2="301" y1="47" y2="47"/><ellipse cx="183" cy="60.6484" fill="#84BE84" rx="3" ry="3" style="stroke:#038048;stroke-width:1.0;"/><text fill="#000000" font-family="sans-serif" font-size="14" lengthAdjust="spacing" textLength="104" x="192" y="63.9951">build() : Widget</text></g><!--class LoginPage--><g id="elem_LoginPage"><rect codeLine="5" fill="#F1F1F1" height="64.2969" id="LoginPage" rx="2.5" ry="2.5" style="stroke:#181818;stroke-width:0.5;" width="130" x="7" y="131.29"/><ellipse cx="33.7" cy="147.29" fill="#ADD1B2" rx="11" ry="11" style="stroke:#181818;stroke-width:1.0;"/><path d="M36.6688,152.9306 Q36.0906,153.2275 35.45,153.3681 Q34.8094,153.5244 34.1063,153.5244 Q31.6063,153.5244 30.2781,151.8838 Q28.9656,150.2275 28.9656,147.1025 Q28.9656,143.9775 30.2781,142.3213 Q31.6063,140.665 34.1063,140.665 Q34.8094,140.665 35.45,140.8213 Q36.1063,140.9775 36.6688,141.2744 L36.6688,143.9931 Q36.0438,143.415 35.45,143.1494 Q34.8563,142.8681 34.2313,142.8681 Q32.8875,142.8681 32.2,143.9463 Q31.5125,145.0088 31.5125,147.1025 Q31.5125,149.1963 32.2,150.2744 Q32.8875,151.3369 34.2313,151.3369 Q34.8563,151.3369 35.45,151.0713 Q36.0438,150.79 36.6688,150.2119 L36.6688,152.9306 Z " fill="#000000"/><text fill="#000000" font-family="sans-serif" font-size="14" lengthAdjust="spacing" textLength="72" x="50.3" y="152.1367">LoginPage</text><line style="stroke:#181818;stroke-width:0.5;" x1="8" x2="136" y1="163.29" y2="163.29"/><line style="stroke:#181818;stroke-width:0.5;" x1="8" x2="136" y1="171.29" y2="171.29"/><ellipse cx="18" cy="184.9384" fill="#84BE84" rx="3" ry="3" style="stroke:#038048;stroke-width:1.0;"/><text fill="#000000" font-family="sans-serif" font-size="14" lengthAdjust="spacing" textLength="104" x="27" y="188.2851">build() : Widget</text></g><!--class SignUpPage--><g id="elem_SignUpPage"><rect codeLine="9" fill="#F1F1F1" height="64.2969" id="SignUpPage" rx="2.5" ry="2.5" style="stroke:#181818;stroke-width:0.5;" width="130" x="172" y="131.29"/><ellipse cx="193.3" cy="147.29" fill="#ADD1B2" rx="11" ry="11" style="stroke:#181818;stroke-width:1.0;"/><path d="M196.2688,152.9306 Q195.6906,153.2275 195.05,153.3681 Q194.4094,153.5244 193.7063,153.5244 Q191.2063,153.5244 189.8781,151.8838 Q188.5656,150.2275 188.5656,147.1025 Q188.5656,143.9775 189.8781,142.3213 Q191.2063,140.665 193.7063,140.665 Q194.4094,140.665 195.05,140.8213 Q195.7063,140.9775 196.2688,141.2744 L196.2688,143.9931 Q195.6438,143.415 195.05,143.1494 Q194.4563,142.8681 193.8313,142.8681 Q192.4875,142.8681 191.8,143.9463 Q191.1125,145.0088 191.1125,147.1025 Q191.1125,149.1963 191.8,150.2744 Q192.4875,151.3369 193.8313,151.3369 Q194.4563,151.3369 195.05,151.0713 Q195.6438,150.79 196.2688,150.2119 L196.2688,152.9306 Z " fill="#000000"/><text fill="#000000" font-family="sans-serif" font-size="14" lengthAdjust="spacing" textLength="84" x="208.7" y="152.1367">SignUpPage</text><line style="stroke:#181818;stroke-width:0.5;" x1="173" x2="301" y1="163.29" y2="163.29"/><line style="stroke:#181818;stroke-width:0.5;" x1="173" x2="301" y1="171.29" y2="171.29"/><ellipse cx="183" cy="184.9384" fill="#84BE84" rx="3" ry="3" style="stroke:#038048;stroke-width:1.0;"/><text fill="#000000" font-family="sans-serif" font-size="14" lengthAdjust="spacing" textLength="104" x="192" y="188.2851">build() : Widget</text></g><!--class HomePage--><g id="elem_HomePage"><rect codeLine="13" fill="#F1F1F1" height="64.2969" id="HomePage" rx="2.5" ry="2.5" style="stroke:#181818;stroke-width:0.5;" width="130" x="337" y="131.29"/><ellipse cx="361.9" cy="147.29" fill="#ADD1B2" rx="11" ry="11" style="stroke:#181818;stroke-width:1.0;"/><path d="M364.8688,152.9306 Q364.2906,153.2275 363.65,153.3681 Q363.0094,153.5244 362.3063,153.5244 Q359.8063,153.5244 358.4781,151.8838 Q357.1656,150.2275 357.1656,147.1025 Q357.1656,143.9775 358.4781,142.3213 Q359.8063,140.665 362.3063,140.665 Q363.0094,140.665 363.65,140.8213 Q364.3063,140.9775 364.8688,141.2744 L364.8688,143.9931 Q364.2438,143.415 363.65,143.1494 Q363.0563,142.8681 362.4313,142.8681 Q361.0875,142.8681 360.4,143.9463 Q359.7125,145.0088 359.7125,147.1025 Q359.7125,149.1963 360.4,150.2744 Q361.0875,151.3369 362.4313,151.3369 Q363.0563,151.3369 363.65,151.0713 Q364.2438,150.79 364.8688,150.2119 L364.8688,152.9306 Z " fill="#000000"/><text fill="#000000" font-family="sans-serif" font-size="14" lengthAdjust="spacing" textLength="76" x="378.1" y="152.1367">HomePage</text><line style="stroke:#181818;stroke-width:0.5;" x1="338" x2="466" y1="163.29" y2="163.29"/><line style="stroke:#181818;stroke-width:0.5;" x1="338" x2="466" y1="171.29" y2="171.29"/><ellipse cx="348" cy="184.9384" fill="#84BE84" rx="3" ry="3" style="stroke:#038048;stroke-width:1.0;"/><text fill="#000000" font-family="sans-serif" font-size="14" lengthAdjust="spacing" textLength="104" x="357" y="188.2851">build() : Widget</text></g><!--class MenuPage--><g id="elem_MenuPage"><rect codeLine="17" fill="#F1F1F1" height="64.2969" id="MenuPage" rx="2.5" ry="2.5" style="stroke:#181818;stroke-width:0.5;" width="130" x="337" y="255.59"/><ellipse cx="362.8" cy="271.59" fill="#ADD1B2" rx="11" ry="11" style="stroke:#181818;stroke-width:1.0;"/><path d="M365.7688,277.2306 Q365.1906,277.5275 364.55,277.6681 Q363.9094,277.8244 363.2063,277.8244 Q360.7063,277.8244 359.3781,276.1838 Q358.0656,274.5275 358.0656,271.4025 Q358.0656,268.2775 359.3781,266.6213 Q360.7063,264.965 363.2063,264.965 Q363.9094,264.965 364.55,265.1213 Q365.2063,265.2775 365.7688,265.5744 L365.7688,268.2931 Q365.1438,267.715 364.55,267.4494 Q363.9563,267.1681 363.3313,267.1681 Q361.9875,267.1681 361.3,268.2463 Q360.6125,269.3088 360.6125,271.4025 Q360.6125,273.4963 361.3,274.5744 Q361.9875,275.6369 363.3313,275.6369 Q363.9563,275.6369 364.55,275.3713 Q365.1438,275.09 365.7688,274.5119 L365.7688,277.2306 Z " fill="#000000"/><text fill="#000000" font-family="sans-serif" font-size="14" lengthAdjust="spacing" textLength="74" x="379.2" y="276.4367">MenuPage</text><line style="stroke:#181818;stroke-width:0.5;" x1="338" x2="466" y1="287.59" y2="287.59"/><line style="stroke:#181818;stroke-width:0.5;" x1="338" x2="466" y1="295.59" y2="295.59"/><ellipse cx="348" cy="309.2384" fill="#84BE84" rx="3" ry="3" style="stroke:#038048;stroke-width:1.0;"/><text fill="#000000" font-family="sans-serif" font-size="14" lengthAdjust="spacing" textLength="104" x="357" y="312.5851">build() : Widget</text></g><!--class GuidePage--><g id="elem_GuidePage"><rect codeLine="21" fill="#F1F1F1" height="64.2969" id="GuidePage" rx="2.5" ry="2.5" style="stroke:#181818;stroke-width:0.5;" width="130" x="255" y="379.89"/><ellipse cx="279.9" cy="395.89" fill="#ADD1B2" rx="11" ry="11" style="stroke:#181818;stroke-width:1.0;"/><path d="M282.8688,401.5306 Q282.2906,401.8275 281.65,401.9681 Q281.0094,402.1244 280.3063,402.1244 Q277.8063,402.1244 276.4781,400.4838 Q275.1656,398.8275 275.1656,395.7025 Q275.1656,392.5775 276.4781,390.9213 Q277.8063,389.265 280.3063,389.265 Q281.0094,389.265 281.65,389.4213 Q282.3063,389.5775 282.8688,389.8744 L282.8688,392.5931 Q282.2438,392.015 281.65,391.7494 Q281.0563,391.4681 280.4313,391.4681 Q279.0875,391.4681 278.4,392.5463 Q277.7125,393.6088 277.7125,395.7025 Q277.7125,397.7963 278.4,398.8744 Q279.0875,399.9369 280.4313,399.9369 Q281.0563,399.9369 281.65,399.6713 Q282.2438,399.39 282.8688,398.8119 L282.8688,401.5306 Z " fill="#000000"/><text fill="#000000" font-family="sans-serif" font-size="14" lengthAdjust="spacing" textLength="76" x="296.1" y="400.7367">GuidePage</text><line style="stroke:#181818;stroke-width:0.5;" x1="256" x2="384" y1="411.89" y2="411.89"/><line style="stroke:#181818;stroke-width:0.5;" x1="256" x2="384" y1="419.89" y2="419.89"/><ellipse cx="266" cy="433.5384" fill="#84BE84" rx="3" ry="3" style="stroke:#038048;stroke-width:1.0;"/><text fill="#000000" font-family="sans-serif" font-size="14" lengthAdjust="spacing" textLength="104" x="275" y="436.8851">build() : Widget</text></g><!--class CityListPage--><g id="elem_CityListPage"><rect codeLine="25" fill="#F1F1F1" height="64.2969" id="CityListPage" rx="2.5" ry="2.5" style="stroke:#181818;stroke-width:0.5;" width="130" x="420" y="379.89"/><ellipse cx="441.75" cy="395.89" fill="#ADD1B2" rx="11" ry="11" style="stroke:#181818;stroke-width:1.0;"/><path d="M444.7188,401.5306 Q444.1406,401.8275 443.5,401.9681 Q442.8594,402.1244 442.1563,402.1244 Q439.6563,402.1244 438.3281,400.4838 Q437.0156,398.8275 437.0156,395.7025 Q437.0156,392.5775 438.3281,390.9213 Q439.6563,389.265 442.1563,389.265 Q442.8594,389.265 443.5,389.4213 Q444.1563,389.5775 444.7188,389.8744 L444.7188,392.5931 Q444.0938,392.015 443.5,391.7494 Q442.9063,391.4681 442.2813,391.4681 Q440.9375,391.4681 440.25,392.5463 Q439.5625,393.6088 439.5625,395.7025 Q439.5625,397.7963 440.25,398.8744 Q440.9375,399.9369 442.2813,399.9369 Q442.9063,399.9369 443.5,399.6713 Q444.0938,399.39 444.7188,398.8119 L444.7188,401.5306 Z " fill="#000000"/><text fill="#000000" font-family="sans-serif" font-size="14" lengthAdjust="spacing" textLength="83" x="457.25" y="400.7367">CityListPage</text><line style="stroke:#181818;stroke-width:0.5;" x1="421" x2="549" y1="411.89" y2="411.89"/><line style="stroke:#181818;stroke-width:0.5;" x1="421" x2="549" y1="419.89" y2="419.89"/><ellipse cx="431" cy="433.5384" fill="#84BE84" rx="3" ry="3" style="stroke:#038048;stroke-width:1.0;"/><text fill="#000000" font-family="sans-serif" font-size="14" lengthAdjust="spacing" textLength="104" x="440" y="436.8851">build() : Widget</text></g><!--class CityDetailPage--><g id="elem_CityDetailPage"><rect codeLine="29" fill="#F1F1F1" height="80.5938" id="CityDetailPage" rx="2.5" ry="2.5" style="stroke:#181818;stroke-width:0.5;" width="216" x="377" y="504.18"/><ellipse cx="431.25" cy="520.18" fill="#ADD1B2" rx="11" ry="11" style="stroke:#181818;stroke-width:1.0;"/><path d="M434.2188,525.8206 Q433.6406,526.1175 433,526.2581 Q432.3594,526.4144 431.6563,526.4144 Q429.1563,526.4144 427.8281,524.7738 Q426.5156,523.1175 426.5156,519.9925 Q426.5156,516.8675 427.8281,515.2113 Q429.1563,513.555 431.6563,513.555 Q432.3594,513.555 433,513.7113 Q433.6563,513.8675 434.2188,514.1644 L434.2188,516.8831 Q433.5938,516.305 433,516.0394 Q432.4063,515.7581 431.7813,515.7581 Q430.4375,515.7581 429.75,516.8363 Q429.0625,517.8988 429.0625,519.9925 Q429.0625,522.0863 429.75,523.1644 Q430.4375,524.2269 431.7813,524.2269 Q432.4063,524.2269 433,523.9613 Q433.5938,523.68 434.2188,523.1019 L434.2188,525.8206 Z " fill="#000000"/><text fill="#000000" font-family="sans-serif" font-size="14" lengthAdjust="spacing" textLength="99" x="451.75" y="525.0267">CityDetailPage</text><line style="stroke:#181818;stroke-width:0.5;" x1="378" x2="592" y1="536.18" y2="536.18"/><rect fill="none" height="6" style="stroke:#C82930;stroke-width:1.0;" width="6" x="385" y="546.8284"/><text fill="#000000" font-family="sans-serif" font-size="14" lengthAdjust="spacing" textLength="190" x="397" y="553.1751">city: Map&lt;String, dynamic&gt;</text><line style="stroke:#181818;stroke-width:0.5;" x1="378" x2="592" y1="560.4769" y2="560.4769"/><ellipse cx="388" cy="574.1253" fill="#84BE84" rx="3" ry="3" style="stroke:#038048;stroke-width:1.0;"/><text fill="#000000" font-family="sans-serif" font-size="14" lengthAdjust="spacing" textLength="104" x="397" y="577.472">build() : Widget</text></g><!--class ActivitiesPage--><g id="elem_ActivitiesPage"><rect codeLine="34" fill="#F1F1F1" height="64.2969" id="ActivitiesPage" rx="2.5" ry="2.5" style="stroke:#181818;stroke-width:0.5;" width="130" x="220" y="652.93"/><ellipse cx="236.35" cy="668.93" fill="#ADD1B2" rx="11" ry="11" style="stroke:#181818;stroke-width:1.0;"/><path d="M239.3188,674.5706 Q238.7406,674.8675 238.1,675.0081 Q237.4594,675.1644 236.7563,675.1644 Q234.2563,675.1644 232.9281,673.5238 Q231.6156,671.8675 231.6156,668.7425 Q231.6156,665.6175 232.9281,663.9613 Q234.2563,662.305 236.7563,662.305 Q237.4594,662.305 238.1,662.4613 Q238.7563,662.6175 239.3188,662.9144 L239.3188,665.6331 Q238.6938,665.055 238.1,664.7894 Q237.5063,664.5081 236.8813,664.5081 Q235.5375,664.5081 234.85,665.5863 Q234.1625,666.6488 234.1625,668.7425 Q234.1625,670.8363 234.85,671.9144 Q235.5375,672.9769 236.8813,672.9769 Q237.5063,672.9769 238.1,672.7113 Q238.6938,672.43 239.3188,671.8519 L239.3188,674.5706 Z " fill="#000000"/><text fill="#000000" font-family="sans-serif" font-size="14" lengthAdjust="spacing" textLength="95" x="250.65" y="673.7767">ActivitiesPage</text><line style="stroke:#181818;stroke-width:0.5;" x1="221" x2="349" y1="684.93" y2="684.93"/><line style="stroke:#181818;stroke-width:0.5;" x1="221" x2="349" y1="692.93" y2="692.93"/><ellipse cx="231" cy="706.5784" fill="#84BE84" rx="3" ry="3" style="stroke:#038048;stroke-width:1.0;"/><text fill="#000000" font-family="sans-serif" font-size="14" lengthAdjust="spacing" textLength="104" x="240" y="709.9251">build() : Widget</text></g><!--class ActivityDetailPage--><g id="elem_ActivityDetailPage"><rect codeLine="38" fill="#F1F1F1" height="162.0781" id="ActivityDetailPage" rx="2.5" ry="2.5" style="stroke:#181818;stroke-width:0.5;" width="153" x="190.5" y="785.37"/><ellipse cx="205.5" cy="801.37" fill="#ADD1B2" rx="11" ry="11" style="stroke:#181818;stroke-width:1.0;"/><path d="M208.4688,807.0106 Q207.8906,807.3075 207.25,807.4481 Q206.6094,807.6044 205.9063,807.6044 Q203.4063,807.6044 202.0781,805.9638 Q200.7656,804.3075 200.7656,801.1825 Q200.7656,798.0575 202.0781,796.4013 Q203.4063,794.745 205.9063,794.745 Q206.6094,794.745 207.25,794.9013 Q207.9063,795.0575 208.4688,795.3544 L208.4688,798.0731 Q207.8438,797.495 207.25,797.2294 Q206.6563,796.9481 206.0313,796.9481 Q204.6875,796.9481 204,798.0263 Q203.3125,799.0888 203.3125,801.1825 Q203.3125,803.2763 204,804.3544 Q204.6875,805.4169 206.0313,805.4169 Q206.6563,805.4169 207.25,805.1513 Q207.8438,804.87 208.4688,804.2919 L208.4688,807.0106 Z " fill="#000000"/><text fill="#000000" font-family="sans-serif" font-size="14" lengthAdjust="spacing" textLength="121" x="219.5" y="806.2167">ActivityDetailPage</text><line style="stroke:#181818;stroke-width:0.5;" x1="191.5" x2="342.5" y1="817.37" y2="817.37"/><rect fill="none" height="6" style="stroke:#C82930;stroke-width:1.0;" width="6" x="198.5" y="828.0184"/><text fill="#000000" font-family="sans-serif" font-size="14" lengthAdjust="spacing" textLength="74" x="210.5" y="834.3651">title: String</text><rect fill="none" height="6" style="stroke:#C82930;stroke-width:1.0;" width="6" x="198.5" y="844.3153"/><text fill="#000000" font-family="sans-serif" font-size="14" lengthAdjust="spacing" textLength="91" x="210.5" y="850.662">image: String</text><rect fill="none" height="6" style="stroke:#C82930;stroke-width:1.0;" width="6" x="198.5" y="860.6122"/><text fill="#000000" font-family="sans-serif" font-size="14" lengthAdjust="spacing" textLength="126" x="210.5" y="866.9589">description: String</text><rect fill="none" height="6" style="stroke:#C82930;stroke-width:1.0;" width="6" x="198.5" y="876.9091"/><text fill="#000000" font-family="sans-serif" font-size="14" lengthAdjust="spacing" textLength="106" x="210.5" y="883.2557">duration: String</text><rect fill="none" height="6" style="stroke:#C82930;stroke-width:1.0;" width="6" x="198.5" y="893.2059"/><text fill="#000000" font-family="sans-serif" font-size="14" lengthAdjust="spacing" textLength="83" x="210.5" y="899.5526">price: String</text><rect fill="none" height="6" style="stroke:#C82930;stroke-width:1.0;" width="6" x="198.5" y="909.5028"/><text fill="#000000" font-family="sans-serif" font-size="14" lengthAdjust="spacing" textLength="72" x="210.5" y="915.8495">link: String</text><line style="stroke:#181818;stroke-width:0.5;" x1="191.5" x2="342.5" y1="923.1513" y2="923.1513"/><ellipse cx="201.5" cy="936.7997" fill="#84BE84" rx="3" ry="3" style="stroke:#038048;stroke-width:1.0;"/><text fill="#000000" font-family="sans-serif" font-size="14" lengthAdjust="spacing" textLength="104" x="210.5" y="940.1464">build() : Widget</text></g><!--class HotelListPage--><g id="elem_HotelListPage"><rect codeLine="48" fill="#F1F1F1" height="80.5938" id="HotelListPage" rx="2.5" ry="2.5" style="stroke:#181818;stroke-width:0.5;" width="130" x="420" y="644.78"/><ellipse cx="436.8" cy="660.78" fill="#ADD1B2" rx="11" ry="11" style="stroke:#181818;stroke-width:1.0;"/><path d="M439.7688,666.4206 Q439.1906,666.7175 438.55,666.8581 Q437.9094,667.0144 437.2063,667.0144 Q434.7063,667.0144 433.3781,665.3738 Q432.0656,663.7175 432.0656,660.5925 Q432.0656,657.4675 433.3781,655.8113 Q434.7063,654.155 437.2063,654.155 Q437.9094,654.155 438.55,654.3113 Q439.2063,654.4675 439.7688,654.7644 L439.7688,657.4831 Q439.1438,656.905 438.55,656.6394 Q437.9563,656.3581 437.3313,656.3581 Q435.9875,656.3581 435.3,657.4363 Q434.6125,658.4988 434.6125,660.5925 Q434.6125,662.6863 435.3,663.7644 Q435.9875,664.8269 437.3313,664.8269 Q437.9563,664.8269 438.55,664.5613 Q439.1438,664.28 439.7688,663.7019 L439.7688,666.4206 Z " fill="#000000"/><text fill="#000000" font-family="sans-serif" font-size="14" lengthAdjust="spacing" textLength="94" x="451.2" y="665.6267">HotelListPage</text><line style="stroke:#181818;stroke-width:0.5;" x1="421" x2="549" y1="676.78" y2="676.78"/><rect fill="none" height="6" style="stroke:#C82930;stroke-width:1.0;" width="6" x="428" y="687.4284"/><text fill="#000000" font-family="sans-serif" font-size="14" lengthAdjust="spacing" textLength="72" x="440" y="693.7751">city: String</text><line style="stroke:#181818;stroke-width:0.5;" x1="421" x2="549" y1="701.0769" y2="701.0769"/><ellipse cx="431" cy="714.7253" fill="#84BE84" rx="3" ry="3" style="stroke:#038048;stroke-width:1.0;"/><text fill="#000000" font-family="sans-serif" font-size="14" lengthAdjust="spacing" textLength="104" x="440" y="718.072">build() : Widget</text></g><!--class HotelDetailPage--><g id="elem_HotelDetailPage"><rect codeLine="53" fill="#F1F1F1" height="80.5938" id="HotelDetailPage" rx="2.5" ry="2.5" style="stroke:#181818;stroke-width:0.5;" width="250" x="378" y="826.11"/><ellipse cx="443.75" cy="842.11" fill="#ADD1B2" rx="11" ry="11" style="stroke:#181818;stroke-width:1.0;"/><path d="M446.7188,847.7506 Q446.1406,848.0475 445.5,848.1881 Q444.8594,848.3444 444.1563,848.3444 Q441.6563,848.3444 440.3281,846.7038 Q439.0156,845.0475 439.0156,841.9225 Q439.0156,838.7975 440.3281,837.1413 Q441.6563,835.485 444.1563,835.485 Q444.8594,835.485 445.5,835.6413 Q446.1563,835.7975 446.7188,836.0944 L446.7188,838.8131 Q446.0938,838.235 445.5,837.9694 Q444.9063,837.6881 444.2813,837.6881 Q442.9375,837.6881 442.25,838.7663 Q441.5625,839.8288 441.5625,841.9225 Q441.5625,844.0163 442.25,845.0944 Q442.9375,846.1569 444.2813,846.1569 Q444.9063,846.1569 445.5,845.8913 Q446.0938,845.61 446.7188,845.0319 L446.7188,847.7506 Z " fill="#000000"/><text fill="#000000" font-family="sans-serif" font-size="14" lengthAdjust="spacing" textLength="110" x="464.25" y="846.9567">HotelDetailPage</text><line style="stroke:#181818;stroke-width:0.5;" x1="379" x2="627" y1="858.11" y2="858.11"/><rect fill="none" height="6" style="stroke:#C82930;stroke-width:1.0;" width="6" x="386" y="868.7584"/><text fill="#000000" font-family="sans-serif" font-size="14" lengthAdjust="spacing" textLength="224" x="398" y="875.1051">hotel: QueryDocumentSnapshot</text><line style="stroke:#181818;stroke-width:0.5;" x1="379" x2="627" y1="882.4069" y2="882.4069"/><ellipse cx="389" cy="896.0553" fill="#84BE84" rx="3" ry="3" style="stroke:#038048;stroke-width:1.0;"/><text fill="#000000" font-family="sans-serif" font-size="14" lengthAdjust="spacing" textLength="104" x="398" y="899.402">build() : Widget</text></g><!--class RestaurantListPage--><g id="elem_RestaurantListPage"><rect codeLine="58" fill="#F1F1F1" height="80.5938" id="RestaurantListPage" rx="2.5" ry="2.5" style="stroke:#181818;stroke-width:0.5;" width="166" x="585" y="644.78"/><ellipse cx="600" cy="660.78" fill="#ADD1B2" rx="11" ry="11" style="stroke:#181818;stroke-width:1.0;"/><path d="M602.9688,666.4206 Q602.3906,666.7175 601.75,666.8581 Q601.1094,667.0144 600.4063,667.0144 Q597.9063,667.0144 596.5781,665.3738 Q595.2656,663.7175 595.2656,660.5925 Q595.2656,657.4675 596.5781,655.8113 Q597.9063,654.155 600.4063,654.155 Q601.1094,654.155 601.75,654.3113 Q602.4063,654.4675 602.9688,654.7644 L602.9688,657.4831 Q602.3438,656.905 601.75,656.6394 Q601.1563,656.3581 600.5313,656.3581 Q599.1875,656.3581 598.5,657.4363 Q597.8125,658.4988 597.8125,660.5925 Q597.8125,662.6863 598.5,663.7644 Q599.1875,664.8269 600.5313,664.8269 Q601.1563,664.8269 601.75,664.5613 Q602.3438,664.28 602.9688,663.7019 L602.9688,666.4206 Z " fill="#000000"/><text fill="#000000" font-family="sans-serif" font-size="14" lengthAdjust="spacing" textLength="134" x="614" y="665.6267">RestaurantListPage</text><line style="stroke:#181818;stroke-width:0.5;" x1="586" x2="750" y1="676.78" y2="676.78"/><rect fill="none" height="6" style="stroke:#C82930;stroke-width:1.0;" width="6" x="593" y="687.4284"/><text fill="#000000" font-family="sans-serif" font-size="14" lengthAdjust="spacing" textLength="72" x="605" y="693.7751">city: String</text><line style="stroke:#181818;stroke-width:0.5;" x1="586" x2="750" y1="701.0769" y2="701.0769"/><ellipse cx="596" cy="714.7253" fill="#84BE84" rx="3" ry="3" style="stroke:#038048;stroke-width:1.0;"/><text fill="#000000" font-family="sans-serif" font-size="14" lengthAdjust="spacing" textLength="104" x="605" y="718.072">build() : Widget</text></g><!--link MyApp to LoginPage--><g id="link_MyApp_LoginPage"><path codeLine="63" d="M194.51,71.64 C169.97,89.83 144.0213,109.0686 119.4513,127.2686 " fill="none" id="MyApp-to-LoginPage" style="stroke:#181818;stroke-width:1.0;"/><polygon fill="#181818" points="114.63,130.84,124.2429,128.6972,118.6478,127.8639,119.4811,122.2687,114.63,130.84" style="stroke:#181818;stroke-width:1.0;"/></g><!--link MyApp to SignUpPage--><g id="link_MyApp_SignUpPage"><path codeLine="64" d="M237,71.64 C237,89.9 237,106.81 237,125.05 " fill="none" id="MyApp-to-SignUpPage" style="stroke:#181818;stroke-width:1.0;"/><polygon fill="#181818" points="237,131.05,241,122.05,237,126.05,233,122.05,237,131.05" style="stroke:#181818;stroke-width:1.0;"/></g><!--link MyApp to HomePage--><g id="link_MyApp_HomePage"><path codeLine="65" d="M279.49,71.64 C304.03,89.83 329.9787,109.0686 354.5487,127.2686 " fill="none" id="MyApp-to-HomePage" style="stroke:#181818;stroke-width:1.0;"/><polygon fill="#181818" points="359.37,130.84,354.5189,122.2687,355.3522,127.8639,349.7571,128.6972,359.37,130.84" style="stroke:#181818;stroke-width:1.0;"/></g><!--link HomePage to MenuPage--><g id="link_HomePage_MenuPage"><path codeLine="66" d="M402,195.94 C402,214.2 402,231.11 402,249.35 " fill="none" id="HomePage-to-MenuPage" style="stroke:#181818;stroke-width:1.0;"/><polygon fill="#181818" points="402,255.35,406,246.35,402,250.35,398,246.35,402,255.35" style="stroke:#181818;stroke-width:1.0;"/></g><!--link MenuPage to GuidePage--><g id="link_MenuPage_GuidePage"><path codeLine="67" d="M380.88,320.23 C368.64,338.49 356.6214,356.4265 344.3914,374.6665 " fill="none" id="MenuPage-to-GuidePage" style="stroke:#181818;stroke-width:1.0;"/><polygon fill="#181818" points="341.05,379.65,349.3844,374.4024,343.8345,375.4971,342.7398,369.9472,341.05,379.65" style="stroke:#181818;stroke-width:1.0;"/></g><!--link MenuPage to CityListPage--><g id="link_MenuPage_CityListPage"><path codeLine="68" d="M423.37,320.23 C435.77,338.49 447.9505,356.4455 460.3305,374.6855 " fill="none" id="MenuPage-to-CityListPage" style="stroke:#181818;stroke-width:1.0;"/><polygon fill="#181818" points="463.7,379.65,461.9554,369.9569,460.892,375.5129,455.336,374.4496,463.7,379.65" style="stroke:#181818;stroke-width:1.0;"/></g><!--link CityListPage to CityDetailPage--><g id="link_CityListPage_CityDetailPage"><path codeLine="69" d="M485,444.61 C485,462.41 485,478.8 485,497.78 " fill="none" id="CityListPage-to-CityDetailPage" style="stroke:#181818;stroke-width:1.0;"/><polygon fill="#181818" points="485,503.78,489,494.78,485,498.78,481,494.78,485,503.78" style="stroke:#181818;stroke-width:1.0;"/></g><!--link CityDetailPage to ActivitiesPage--><g id="link_CityDetailPage_ActivitiesPage"><path codeLine="70" d="M427.69,585.2 C396.87,606.55 364.322,629.113 335.512,649.073 " fill="none" id="CityDetailPage-to-ActivitiesPage" style="stroke:#181818;stroke-width:1.0;"/><polygon fill="#181818" points="330.58,652.49,340.2559,650.6526,334.69,649.6425,335.7,644.0766,330.58,652.49" style="stroke:#181818;stroke-width:1.0;"/></g><!--link CityDetailPage to HotelListPage--><g id="link_CityDetailPage_HotelListPage"><path codeLine="71" d="M485,585.2 C485,603.75 485,619.8 485,638.35 " fill="none" id="CityDetailPage-to-HotelListPage" style="stroke:#181818;stroke-width:1.0;"/><polygon fill="#181818" points="485,644.35,489,635.35,485,639.35,481,635.35,485,644.35" style="stroke:#181818;stroke-width:1.0;"/></g><!--link CityDetailPage to RestaurantListPage--><g id="link_CityDetailPage_RestaurantListPage"><path codeLine="72" d="M537.44,585.2 C561.94,603.75 586.2665,622.1782 610.7665,640.7282 " fill="none" id="CityDetailPage-to-RestaurantListPage" style="stroke:#181818;stroke-width:1.0;"/><polygon fill="#181818" points="615.55,644.35,610.7892,635.7282,611.5637,641.3318,605.9601,642.1063,615.55,644.35" style="stroke:#181818;stroke-width:1.0;"/></g><!--link ActivitiesPage to ActivityDetailPage--><g id="link_ActivitiesPage_ActivityDetailPage"><path codeLine="73" d="M281.86,717.31 C279.97,736.18 278.058,755.1899 275.648,779.2499 " fill="none" id="ActivitiesPage-to-ActivityDetailPage" style="stroke:#181818;stroke-width:1.0;"/><polygon fill="#181818" points="275.05,785.22,279.9271,776.6635,275.5483,780.2449,271.9669,775.8661,275.05,785.22" style="stroke:#181818;stroke-width:1.0;"/></g><!--link HotelListPage to HotelDetailPage--><g id="link_HotelListPage_HotelDetailPage"><path codeLine="74" d="M488.95,725.43 C491.94,755.23 495.43,790.0201 498.43,819.8701 " fill="none" id="HotelListPage-to-HotelDetailPage" style="stroke:#181818;stroke-width:1.0;"/><polygon fill="#181818" points="499.03,825.84,502.11,816.4851,498.53,820.8651,494.1501,817.2851,499.03,825.84" style="stroke:#181818;stroke-width:1.0;"/></g><!--SRC=[dPF1IiGm48RlUOevAjeNABAmkA27BQX5FCTqgCEcQMYcGX7VtNRNjibsiS7hFryooUIBqj8voBgjjV0b06xWlILTN5r32czKbCZYMmXrfFPrIUP9bhXAvbIQLnk5FjOLHe4PcZOAV6YfYDlodhZRa-DeU8SiIKzu0geFKyYalSkv8LFUGj4PMP7QhEosLKoVn8GkglallZm04sjCuTJzc53LLuEaGASQiaor2VEsaOlGDgJ2vPhCmGl-Van67Knq757yyiKLFuOqXUSMcsvNgxP2mxcHrlM5bGrVqB7iRsduFuSw_OeasSpcUzdik1UEDej9wo4TrHMJmqCwUHh6lfGYC7IipXCIPr8EH6ZM9I9ufKl0ScpYp5UlaN-SyFsdNZFn0m00]--></g></svg>